<svg width="300" height="300" viewBox="0 0 234.375 265.74310128341455" class="css-1j8o68f">
    <defs id="SvgjsDefs1286"></defs>
    <g id="SvgjsG1288" featurekey="symbolFeature-0" transform="matrix(1.161031012838019,0,0,1.161031012838019,64.56183719825562,53.629463383331206)" fill="#00adb5">
        <path xmlns="http://www.w3.org/2000/svg" d="M87.1,18.3c-0.3-0.2-7.3-4.2-17.1-4.2c-9.1,0-17.5,3.4-24.9,10.2c-7.4-6.8-15.8-10.2-24.9-10.2c-9.8,0-16.9,4-17.2,4.2  c-0.6,0.3-0.9,0.9-0.9,1.6v44.8c0,0.7,0.4,1.3,0.9,1.6c0.6,0.3,1.3,0.3,1.9,0c0,0,0.4-0.2,0.9-0.5v8.4c0,0.7,0.3,1.3,0.9,1.6  c0.3,0.2,0.6,0.3,1,0.3l0.9-0.2c0.2-0.1,20.2-10.2,35.4-1.8l0.9,0.2h0.4l0.9-0.2c15.2-8.4,35.1,1.7,35.3,1.8  c0.6,0.3,1.3,0.3,1.8-0.1c0.6-0.3,0.9-0.9,0.9-1.6v-8.4c0.5,0.3,0.9,0.5,0.9,0.5c0.6,0.3,1.3,0.4,1.9,0c0.6-0.3,0.9-1,0.9-1.6V19.9  C88,19.3,87.7,18.7,87.1,18.3z M5.9,21.1c2.1-1,7.5-3.2,14.3-3.2c8.5,0,16.3,3.4,23,9.8v40.2C36.2,62,28.4,59,20,59  c-6.1,0-11.2,1.6-14.1,2.9V21.1z M9.6,71.4v-7c2.6-0.9,6.2-1.7,10.4-1.7c5.9,0,11.5,1.7,16.6,5C25.5,65.6,14.6,69.3,9.6,71.4z   M80.6,71.4c-5-2.1-15.9-5.8-26.9-3.7c5.2-3.3,10.7-5,16.6-5c4.1,0,7.7,0.8,10.3,1.7V71.4z M84.3,61.8c-2.9-1.2-7.9-2.8-14-2.8  C61.8,59,54,62,47,68V27.7c6.8-6.6,14.6-9.9,23.1-9.9c6.8,0,12.2,2.2,14.3,3.2V61.8z"></path>
    </g>
    <g id="SvgjsG1289" featurekey="nameFeature-0" transform="matrix(1.160995949907012,0,0,1.160995949907012,38.68268705269372,148.7317912044967)" fill="#00adb5">
        <path d="M20.629 11.428999999999998 l7.4286 0 l0 28.571 l-7.4286 0 l0 -11.143 l-10.286 0 l0 11.143 l-7.4857 0 l0.057143 -28.571 l7.4286 0 l0 11.143 l10.286 0 l0 -11.143 z M32.62856857142857 17.714 l0 -6.2857 l24.286 0 l0 6.2857 l-8.4571 0 l0 22.286 l-7.4286 0 l0 -22.286 l-8.4 0 z M61.485671428571436 35.7143 l0 -24.286 l7.4286 0 l0 22.286 l15.429 0 l0 6.2857 l-18.571 0 z M88.62857142857143 40 l0 -5.7143 l2.2857 0 l0 -17.143 l-2.2857 0 l0 -5.7143 l12 0 l0 5.7143 l-2.2857 0 l0 17.143 l2.2857 0 l0 5.7143 l-12 0 z M132.0567142857143 15.713999999999999 l0 6.9714 l-3.0286 3.0286 l3.0286 3.0286 l0 6.9714 l-4.2857 4.2857 l-21.429 0 l0 -28.571 l21.429 0 z M124.6287142857143 22.571 l0 -4.8571 l-10.857 0 l0 4.8571 l10.857 0 z M124.6287142857143 33.7143 l0 -4.8571 l-10.857 0 l0 4.8571 l10.857 0 z"></path>
    </g>
</svg>